<?xml version="1.0" encoding="UTF-8" standalone="no"?>
<!DOCTYPE svg PUBLIC "-//W3C//DTD SVG 1.1//EN"
 "http://www.w3.org/Graphics/SVG/1.1/DTD/svg11.dtd">
<!-- Generated by graphviz version 2.38.0 (20140413.2041)
 -->
<!-- Title: zwave&#45;map Pages: 1 -->
<svg width="889pt" height="836pt"
 viewBox="0.00 0.00 888.82 836.00" xmlns="http://www.w3.org/2000/svg" xmlns:xlink="http://www.w3.org/1999/xlink">
<g id="graph0" class="graph" transform="scale(1 1) rotate(0) translate(4 832)">
<title>zwave&#45;map</title>
<polygon fill="white" stroke="none" points="-4,4 -4,-832 884.822,-832 884.822,4 -4,4"/>
<!-- 1 -->
<g id="node1" class="node"><title>1</title>
<ellipse fill="#7f7f7f" stroke="black" cx="409.822" cy="-810" rx="129.977" ry="18"/>
<text text-anchor="middle" x="409.822" y="-806.3" font-family="Times,serif" font-size="14.00" fill="white">Aeotec ZW090 Z&#45;Stick Gen5 EU</text>
</g>
<!-- 2 -->
<g id="node2" class="node"><title>2</title>
<ellipse fill="none" stroke="forestgreen" cx="573.822" cy="-738" rx="136.476" ry="18"/>
<text text-anchor="middle" x="573.822" y="-734.3" font-family="Times,serif" font-size="14.00">Fibaro Wall Plug Server Room AC</text>
</g>
<!-- 1&#45;&#45;2 -->
<g id="edge1" class="edge"><title>1&#45;&#45;2</title>
<path fill="none" stroke="forestgreen" d="M447.859,-792.765C474.164,-781.537 509.04,-766.651 535.423,-755.39"/>
</g>
<!-- 3 -->
<g id="node3" class="node"><title>3</title>
<ellipse fill="none" stroke="forestgreen" cx="345.822" cy="-666" rx="170.87" ry="18"/>
<text text-anchor="middle" x="345.822" y="-662.3" font-family="Times,serif" font-size="14.00">Fibaro Wall Plug Server Room Air Extractor</text>
</g>
<!-- 1&#45;&#45;3 -->
<g id="edge2" class="edge"><title>1&#45;&#45;3</title>
<path fill="none" stroke="forestgreen" d="M402.102,-791.871C389.801,-764.578 365.888,-711.52 353.569,-684.189"/>
</g>
<!-- 4 -->
<g id="node4" class="node"><title>4</title>
<ellipse fill="none" stroke="forestgreen" cx="614.822" cy="-522" rx="27" ry="18"/>
<text text-anchor="middle" x="614.822" y="-518.3" font-family="Times,serif" font-size="14.00">IR1</text>
</g>
<!-- 1&#45;&#45;4 -->
<g id="edge3" class="edge"><title>1&#45;&#45;4</title>
<path fill="none" stroke="forestgreen" d="M408.86,-791.798C408.705,-772.134 411.462,-740.08 428.822,-720 458.896,-685.213 490.967,-713.995 525.822,-684 550.091,-663.115 590.938,-576.186 607.508,-539.476"/>
</g>
<!-- 5 -->
<g id="node5" class="node"><title>5</title>
<ellipse fill="none" stroke="forestgreen" cx="209.822" cy="-162" rx="66.8882" ry="18"/>
<text text-anchor="middle" x="209.822" y="-158.3" font-family="Times,serif" font-size="14.00">IR Living room</text>
</g>
<!-- 1&#45;&#45;5 -->
<g id="edge4" class="edge"><title>1&#45;&#45;5</title>
<path fill="none" stroke="forestgreen" d="M322.332,-796.65C202.184,-777.191 0.821935,-734.507 0.821935,-667 0.821935,-667 0.821935,-667 0.821935,-521 0.821935,-375.002 22.2374,-321.821 122.822,-216 138.053,-199.976 159.152,-186.964 176.758,-177.844"/>
</g>
<!-- 2&#45;&#45;3 -->
<g id="edge5" class="edge"><title>2&#45;&#45;3</title>
<path fill="none" stroke="darkturquoise" stroke-dasharray="5,2" d="M522.654,-721.291C485.63,-709.923 435.746,-694.608 398.4,-683.142"/>
</g>
<!-- 2&#45;&#45;4 -->
<g id="edge6" class="edge"><title>2&#45;&#45;4</title>
<path fill="none" stroke="darkturquoise" stroke-dasharray="5,2" d="M576.459,-719.534C581.022,-689.9 590.951,-627.928 601.822,-576 604.346,-563.945 607.658,-550.466 610.308,-540.118"/>
</g>
<!-- 8 -->
<g id="node6" class="node"><title>8</title>
<ellipse fill="none" stroke="forestgreen" cx="655.822" cy="-594" rx="45.4919" ry="18"/>
<text text-anchor="middle" x="655.822" y="-590.3" font-family="Times,serif" font-size="14.00">raingauge</text>
</g>
<!-- 2&#45;&#45;8 -->
<g id="edge7" class="edge"><title>2&#45;&#45;8</title>
<path fill="none" stroke="darkturquoise" stroke-dasharray="5,2" d="M583.713,-719.871C599.559,-692.431 630.445,-638.946 646.15,-611.748"/>
</g>
<!-- 3&#45;&#45;4 -->
<g id="edge8" class="edge"><title>3&#45;&#45;4</title>
<path fill="none" stroke="darkturquoise" stroke-dasharray="5,2" d="M377.471,-648.293C433.302,-618.821 547.781,-558.39 594.394,-533.784"/>
</g>
<!-- 3&#45;&#45;5 -->
<g id="edge9" class="edge"><title>3&#45;&#45;5</title>
<path fill="none" stroke="darkturquoise" stroke-dasharray="5,2" d="M240.278,-651.749C164.916,-635.687 76.8219,-600.365 76.8219,-523 76.8219,-523 76.8219,-523 76.8219,-377 76.8219,-291.919 153.595,-212.591 190.483,-179.387"/>
</g>
<!-- 3&#45;&#45;8 -->
<g id="edge11" class="edge"><title>3&#45;&#45;8</title>
<path fill="none" stroke="darkturquoise" stroke-dasharray="5,2" d="M414.621,-649.465C477.053,-635.367 566.842,-615.092 617.411,-603.673"/>
</g>
<!-- 7 -->
<g id="node7" class="node"><title>7</title>
<ellipse fill="none" stroke="darkturquoise" cx="451.822" cy="-522" rx="79.8859" ry="18"/>
<text text-anchor="middle" x="451.822" y="-518.3" font-family="Times,serif" font-size="14.00">Torpargrund sensor</text>
</g>
<!-- 3&#45;&#45;7 -->
<g id="edge10" class="edge"><title>3&#45;&#45;7</title>
<path fill="none" stroke="darkturquoise" d="M358.608,-647.871C378.982,-620.578 418.588,-567.52 438.991,-540.189"/>
</g>
<!-- 14 -->
<g id="node8" class="node"><title>14</title>
<ellipse fill="none" stroke="forestgreen" cx="343.822" cy="-450" rx="48.9926" ry="18"/>
<text text-anchor="middle" x="343.822" y="-446.3" font-family="Times,serif" font-size="14.00">infraheater</text>
</g>
<!-- 3&#45;&#45;14 -->
<g id="edge12" class="edge"><title>3&#45;&#45;14</title>
<path fill="none" stroke="darkturquoise" stroke-dasharray="5,2" d="M345.662,-647.849C345.287,-607.78 344.358,-508.383 343.983,-468.232"/>
</g>
<!-- 17 -->
<g id="node9" class="node"><title>17</title>
<ellipse fill="none" stroke="darkturquoise" cx="440.822" cy="-306" rx="27" ry="18"/>
<text text-anchor="middle" x="440.822" y="-302.3" font-family="Times,serif" font-size="14.00">t2</text>
</g>
<!-- 3&#45;&#45;17 -->
<g id="edge13" class="edge"><title>3&#45;&#45;17</title>
<path fill="none" stroke="darkturquoise" d="M334.61,-648.015C310.405,-609.12 257.636,-510.866 285.822,-432 307.636,-370.962 380.644,-332.28 418.153,-315.949"/>
</g>
<!-- 19 -->
<g id="node10" class="node"><title>19</title>
<ellipse fill="none" stroke="darkturquoise" cx="304.822" cy="-18" rx="27" ry="18"/>
<text text-anchor="middle" x="304.822" y="-14.3" font-family="Times,serif" font-size="14.00">t4</text>
</g>
<!-- 3&#45;&#45;19 -->
<g id="edge14" class="edge"><title>3&#45;&#45;19</title>
<path fill="none" stroke="darkturquoise" d="M230.984,-652.586C173.839,-644.187 112.592,-631.09 91.8219,-612 -12.329,-516.273 0.821935,-448.46 0.821935,-307 0.821935,-307 0.821935,-307 0.821935,-161 0.821935,-39.2541 203.444,-21.6507 277.844,-19.2906"/>
</g>
<!-- 4&#45;&#45;14 -->
<g id="edge15" class="edge"><title>4&#45;&#45;14</title>
<path fill="none" stroke="darkturquoise" stroke-dasharray="5,2" d="M589.813,-514.54C542.379,-502.288 439.05,-475.598 382.578,-461.011"/>
</g>
<!-- 4&#45;&#45;17 -->
<g id="edge17" class="edge"><title>4&#45;&#45;17</title>
<path fill="none" stroke="darkturquoise" d="M610.462,-503.941C601.592,-472.155 578.737,-403.184 537.822,-360 517.232,-338.268 485.717,-323.341 464.237,-314.995"/>
</g>
<!-- 4&#45;&#45;19 -->
<g id="edge19" class="edge"><title>4&#45;&#45;19</title>
<path fill="none" stroke="darkturquoise" d="M639.37,-514.253C705.22,-494.504 880.822,-430.282 880.822,-307 880.822,-307 880.822,-307 880.822,-161 880.822,-46.4192 445.708,-23.7445 331.831,-19.7722"/>
</g>
<!-- 16 -->
<g id="node11" class="node"><title>16</title>
<ellipse fill="none" stroke="darkturquoise" cx="495.822" cy="-90" rx="27" ry="18"/>
<text text-anchor="middle" x="495.822" y="-86.3" font-family="Times,serif" font-size="14.00">t1</text>
</g>
<!-- 4&#45;&#45;16 -->
<g id="edge16" class="edge"><title>4&#45;&#45;16</title>
<path fill="none" stroke="darkturquoise" d="M635.881,-510.249C685.35,-483.324 804.822,-407.857 804.822,-307 804.822,-307 804.822,-307 804.822,-233 804.822,-109.46 598.375,-93.0068 522.973,-91.1173"/>
</g>
<!-- 18 -->
<g id="node12" class="node"><title>18</title>
<ellipse fill="none" stroke="forestgreen" cx="563.822" cy="-234" rx="27" ry="18"/>
<text text-anchor="middle" x="563.822" y="-230.3" font-family="Times,serif" font-size="14.00">t3</text>
</g>
<!-- 4&#45;&#45;18 -->
<g id="edge18" class="edge"><title>4&#45;&#45;18</title>
<path fill="none" stroke="darkturquoise" stroke-dasharray="5,2" d="M625.648,-505.29C651.4,-465.796 710.964,-360.356 666.822,-288 650.064,-260.531 614.019,-246.695 589.342,-240.181"/>
</g>
<!-- 5&#45;&#45;14 -->
<g id="edge20" class="edge"><title>5&#45;&#45;14</title>
<path fill="none" stroke="darkturquoise" stroke-dasharray="5,2" d="M208.084,-180.282C204.84,-221.98 202.24,-329.56 252.822,-396 267.219,-414.911 290.461,-428.283 309.851,-436.864"/>
</g>
<!-- 5&#45;&#45;17 -->
<g id="edge23" class="edge"><title>5&#45;&#45;17</title>
<path fill="none" stroke="darkturquoise" d="M235.458,-178.759C282.134,-207.451 379.994,-267.608 421.524,-293.137"/>
</g>
<!-- 5&#45;&#45;19 -->
<g id="edge24" class="edge"><title>5&#45;&#45;19</title>
<path fill="none" stroke="darkturquoise" d="M221.093,-144.153C239.573,-116.53 276.066,-61.9825 294.149,-34.953"/>
</g>
<!-- 5&#45;&#45;16 -->
<g id="edge22" class="edge"><title>5&#45;&#45;16</title>
<path fill="none" stroke="darkturquoise" d="M257.692,-149.284C319.073,-134.26 423.25,-108.762 470.807,-97.1225"/>
</g>
<!-- 15 -->
<g id="node13" class="node"><title>15</title>
<ellipse fill="none" stroke="darkturquoise" cx="440.822" cy="-378" rx="69.5877" ry="18"/>
<text text-anchor="middle" x="440.822" y="-374.3" font-family="Times,serif" font-size="14.00">hall_multisensor</text>
</g>
<!-- 5&#45;&#45;15 -->
<g id="edge21" class="edge"><title>5&#45;&#45;15</title>
<path fill="none" stroke="darkturquoise" d="M221.138,-179.832C227.814,-190.078 236.221,-203.551 242.822,-216 267.43,-262.407 252.249,-288.345 290.822,-324 316.073,-347.341 352.241,-360.514 382.735,-367.889"/>
</g>
<!-- 8&#45;&#45;1 -->
<g id="edge31" class="edge"><title>8&#45;&#45;1</title>
<path fill="none" stroke="forestgreen" d="M671.722,-610.922C700.822,-641.977 756.355,-711.481 718.822,-756 711.63,-764.531 586.839,-783.883 498.074,-796.69"/>
</g>
<!-- 8&#45;&#45;4 -->
<g id="edge32" class="edge"><title>8&#45;&#45;4</title>
<path fill="none" stroke="darkturquoise" stroke-dasharray="5,2" d="M646.106,-576.411C639.475,-565.091 630.741,-550.178 624.186,-538.988"/>
</g>
<!-- 8&#45;&#45;5 -->
<g id="edge33" class="edge"><title>8&#45;&#45;5</title>
<path fill="none" stroke="darkturquoise" stroke-dasharray="5,2" d="M610.409,-592.624C550.593,-590.43 443.549,-580.541 362.822,-540 279.627,-498.22 228.822,-472.097 228.822,-379 228.822,-379 228.822,-379 228.822,-305 228.822,-259.732 219.219,-207.058 213.667,-180.388"/>
</g>
<!-- 8&#45;&#45;16 -->
<g id="edge34" class="edge"><title>8&#45;&#45;16</title>
<path fill="none" stroke="darkturquoise" d="M681.823,-579.181C733.206,-549.773 842.822,-475.704 842.822,-379 842.822,-379 842.822,-379 842.822,-233 842.822,-185.786 824.124,-170.162 784.822,-144 741.828,-115.381 586.023,-98.8757 522.779,-93.227"/>
</g>
<!-- 7&#45;&#45;5 -->
<g id="edge25" class="edge"><title>7&#45;&#45;5</title>
<path fill="none" stroke="darkturquoise" d="M389.866,-510.478C356.813,-502.683 316.707,-489.558 285.822,-468 252.58,-444.796 248.499,-431.981 229.822,-396 192.553,-324.202 197.514,-296.721 202.822,-216 203.614,-203.96 205.406,-190.481 206.979,-180.129"/>
</g>
<!-- 7&#45;&#45;14 -->
<g id="edge26" class="edge"><title>7&#45;&#45;14</title>
<path fill="none" stroke="darkturquoise" d="M426.773,-504.765C408.702,-493.052 384.49,-477.359 366.891,-465.952"/>
</g>
<!-- 7&#45;&#45;17 -->
<g id="edge29" class="edge"><title>7&#45;&#45;17</title>
<path fill="none" stroke="#eec900" stroke-dasharray="5,2" d="M468.903,-504.086C496.883,-474.241 546.808,-410.601 519.822,-360 508.164,-338.141 483.045,-323.702 464.242,-315.492"/>
</g>
<!-- 7&#45;&#45;16 -->
<g id="edge28" class="edge"><title>7&#45;&#45;16</title>
<path fill="none" stroke="#eec900" stroke-dasharray="5,2" d="M509.232,-509.421C600.088,-487.373 766.822,-430.137 766.822,-307 766.822,-307 766.822,-307 766.822,-233 766.822,-123.581 591.343,-98.3099 522.797,-92.6126"/>
</g>
<!-- 7&#45;&#45;18 -->
<g id="edge30" class="edge"><title>7&#45;&#45;18</title>
<path fill="none" stroke="darkturquoise" d="M480.667,-505.057C495.044,-495.853 511.691,-483.108 522.822,-468 572.142,-401.057 581.564,-370.788 573.822,-288 572.689,-275.88 570.128,-262.402 567.881,-252.071"/>
</g>
<!-- 7&#45;&#45;15 -->
<g id="edge27" class="edge"><title>7&#45;&#45;15</title>
<path fill="none" stroke="#eec900" stroke-dasharray="5,2" d="M450.495,-503.871C448.381,-476.578 444.271,-423.52 442.153,-396.189"/>
</g>
<!-- 14&#45;&#45;1 -->
<g id="edge35" class="edge"><title>14&#45;&#45;1</title>
<path fill="none" stroke="forestgreen" d="M317.617,-465.227C256.14,-500.515 111.793,-595.615 165.822,-684 203.741,-746.032 283.28,-778.541 341.27,-794.673"/>
</g>
<!-- 14&#45;&#45;17 -->
<g id="edge38" class="edge"><title>14&#45;&#45;17</title>
<path fill="none" stroke="darkturquoise" d="M343.536,-431.798C344.021,-412.714 347.269,-381.749 361.822,-360 375.599,-339.411 400.354,-324.753 418.492,-316.145"/>
</g>
<!-- 14&#45;&#45;19 -->
<g id="edge40" class="edge"><title>14&#45;&#45;19</title>
<path fill="none" stroke="darkturquoise" d="M305.338,-438.753C281.052,-430.601 250.479,-417.011 229.822,-396 156.17,-321.088 155.63,-282.766 133.822,-180 130.5,-164.349 126.579,-158.267 133.822,-144 165.202,-82.1913 243.083,-43.6332 281.971,-27.5969"/>
</g>
<!-- 14&#45;&#45;16 -->
<g id="edge37" class="edge"><title>14&#45;&#45;16</title>
<path fill="none" stroke="darkturquoise" d="M341.545,-431.931C339.688,-413.76 338.313,-384.332 344.822,-360 373.192,-253.939 452.955,-145.245 483.609,-106.146"/>
</g>
<!-- 14&#45;&#45;18 -->
<g id="edge39" class="edge"><title>14&#45;&#45;18</title>
<path fill="none" stroke="darkturquoise" stroke-dasharray="5,2" d="M392.174,-446.896C431.731,-442.584 486.413,-430.279 519.822,-396 558.855,-355.95 564.042,-284.78 564.231,-252.176"/>
</g>
<!-- 14&#45;&#45;15 -->
<g id="edge36" class="edge"><title>14&#45;&#45;15</title>
<path fill="none" stroke="darkturquoise" d="M365.349,-433.465C381.089,-422.106 402.386,-406.737 418.343,-395.222"/>
</g>
<!-- 17&#45;&#45;19 -->
<g id="edge49" class="edge"><title>17&#45;&#45;19</title>
<path fill="none" stroke="#eec900" stroke-dasharray="5,2" d="M432.922,-288.387C408.829,-237.72 336.469,-85.5524 312.574,-35.3022"/>
</g>
<!-- 17&#45;&#45;18 -->
<g id="edge48" class="edge"><title>17&#45;&#45;18</title>
<path fill="none" stroke="darkturquoise" d="M460.858,-293.597C483.73,-280.581 520.926,-259.413 543.795,-246.398"/>
</g>
<!-- 16&#45;&#45;17 -->
<g id="edge45" class="edge"><title>16&#45;&#45;17</title>
<path fill="none" stroke="#eec900" stroke-dasharray="5,2" d="M491.244,-108.176C488.49,-118.544 484.928,-132.024 481.822,-144 468.206,-196.489 452.477,-258.713 445.082,-288.066"/>
</g>
<!-- 16&#45;&#45;19 -->
<g id="edge47" class="edge"><title>16&#45;&#45;19</title>
<path fill="none" stroke="#eec900" stroke-dasharray="5,2" d="M472.783,-80.5564C436.072,-67.102 364.705,-40.9467 327.943,-27.4736"/>
</g>
<!-- 16&#45;&#45;18 -->
<g id="edge46" class="edge"><title>16&#45;&#45;18</title>
<path fill="none" stroke="darkturquoise" d="M503.741,-107.537C516.867,-134.946 542.974,-189.465 556.021,-216.711"/>
</g>
<!-- 18&#45;&#45;1 -->
<g id="edge50" class="edge"><title>18&#45;&#45;1</title>
<path fill="none" stroke="forestgreen" d="M589.734,-239.304C617.853,-245.324 662.16,-258.97 687.822,-288 781.263,-393.706 775.822,-451.915 775.822,-593 775.822,-667 775.822,-667 775.822,-667 775.822,-709.669 773.192,-729.408 739.822,-756 730.377,-763.526 593.625,-783.682 499.16,-796.855"/>
</g>
<!-- 18&#45;&#45;5 -->
<g id="edge51" class="edge"><title>18&#45;&#45;5</title>
<path fill="none" stroke="darkturquoise" stroke-dasharray="5,2" d="M538.363,-227.966C480.736,-216.571 339.336,-188.61 262.16,-173.349"/>
</g>
<!-- 15&#45;&#45;17 -->
<g id="edge42" class="edge"><title>15&#45;&#45;17</title>
<path fill="none" stroke="#eec900" stroke-dasharray="5,2" d="M440.822,-359.697C440.822,-348.846 440.822,-334.917 440.822,-324.104"/>
</g>
<!-- 15&#45;&#45;19 -->
<g id="edge44" class="edge"><title>15&#45;&#45;19</title>
<path fill="none" stroke="#eec900" stroke-dasharray="5,2" d="M409.621,-361.854C369.469,-339.92 304.822,-295.249 304.822,-235 304.822,-235 304.822,-235 304.822,-161 304.822,-115.885 304.822,-62.7084 304.822,-36.0493"/>
</g>
<!-- 15&#45;&#45;16 -->
<g id="edge41" class="edge"><title>15&#45;&#45;16</title>
<path fill="none" stroke="#eec900" stroke-dasharray="5,2" d="M455.638,-360.104C463.367,-350.263 472.161,-337.218 476.822,-324 503.951,-247.066 500.192,-147.305 497.324,-107.99"/>
</g>
<!-- 15&#45;&#45;18 -->
<g id="edge43" class="edge"><title>15&#45;&#45;18</title>
<path fill="none" stroke="darkturquoise" d="M465.975,-361.073C479.939,-351.443 497.021,-338.288 509.822,-324 530.083,-301.386 547.007,-270.124 556.249,-251.303"/>
</g>
<!-- 9 -->
<g id="node14" class="node"><title>9</title>
<ellipse fill="none" stroke="red" cx="683.822" cy="-810" rx="126.178" ry="18"/>
<text text-anchor="middle" x="683.822" y="-806.3" font-family="Times,serif" font-size="14.00">Aeotec ZW130 WallMote Quad</text>
</g>
</g>
</svg>
