<?xml version="1.0" encoding="UTF-8" standalone="no"?>
<!DOCTYPE svg PUBLIC "-//W3C//DTD SVG 1.1//EN"
 "http://www.w3.org/Graphics/SVG/1.1/DTD/svg11.dtd">
<!-- Generated by graphviz version 2.38.0 (20140413.2041)
 -->
<!-- Title: G Pages: 1 -->
<svg width="1104pt" height="1049pt"
 viewBox="0.00 0.00 1103.69 1048.88" xmlns="http://www.w3.org/2000/svg" xmlns:xlink="http://www.w3.org/1999/xlink">
<g id="graph0" class="graph" transform="scale(1 1) rotate(0) translate(4 1044.88)">
<title>G</title>
<polygon fill="white" stroke="none" points="-4,4 -4,-1044.88 1099.69,-1044.88 1099.69,4 -4,4"/>
<!-- 1 -->
<g id="node1" class="node"><title>1</title>
<ellipse fill="black" stroke="black" stroke-width="2" cx="619.691" cy="-1014.01" rx="141.343" ry="26.7407"/>
<text text-anchor="middle" x="619.691" y="-1017.81" font-family="Times,serif" font-size="14.00" fill="white">Aeotec ZW090 Z&#45;Stick Gen5 EU</text>
<text text-anchor="middle" x="619.691" y="-1002.81" font-family="Times,serif" font-size="14.00" fill="white">(1)</text>
</g>
<!-- 2 -->
<g id="node2" class="node"><title>2</title>
<ellipse fill="none" stroke="forestgreen" cx="443.691" cy="-924.271" rx="148.485" ry="26.7407"/>
<text text-anchor="middle" x="443.691" y="-928.071" font-family="Times,serif" font-size="14.00">Fibaro Wall Plug Server Room AC</text>
<text text-anchor="middle" x="443.691" y="-913.071" font-family="Times,serif" font-size="14.00">(2)</text>
</g>
<!-- 1&#45;&gt;2 -->
<g id="edge1" class="edge"><title>1&#45;&gt;2</title>
<path fill="none" stroke="forestgreen" d="M561.633,-984.068C542.385,-974.473 520.967,-963.795 501.722,-954.201"/>
<polygon fill="forestgreen" stroke="forestgreen" points="560.154,-987.242 570.665,-988.571 563.277,-980.977 560.154,-987.242"/>
<polygon fill="forestgreen" stroke="forestgreen" points="503.27,-951.062 492.758,-949.733 500.146,-957.327 503.27,-951.062"/>
</g>
<!-- 3 -->
<g id="node3" class="node"><title>3</title>
<ellipse fill="none" stroke="forestgreen" cx="443.691" cy="-834.531" rx="185.938" ry="26.7407"/>
<text text-anchor="middle" x="443.691" y="-838.331" font-family="Times,serif" font-size="14.00">Fibaro Wall Plug Server Room Air Extractor</text>
<text text-anchor="middle" x="443.691" y="-823.331" font-family="Times,serif" font-size="14.00">(3)</text>
</g>
<!-- 1&#45;&gt;3 -->
<g id="edge2" class="edge"><title>1&#45;&gt;3</title>
<path fill="none" stroke="forestgreen" d="M622.54,-976.96C622.583,-952.058 618.578,-919.559 600.691,-897.401 588.232,-881.968 571.384,-870.371 553.338,-861.66"/>
<polygon fill="forestgreen" stroke="forestgreen" points="619.038,-977.036 622.303,-987.115 626.036,-977.199 619.038,-977.036"/>
<polygon fill="forestgreen" stroke="forestgreen" points="554.364,-858.283 543.809,-857.363 551.486,-864.664 554.364,-858.283"/>
</g>
<!-- 4 -->
<g id="node4" class="node"><title>4</title>
<ellipse fill="none" stroke="forestgreen" cx="871.691" cy="-744.791" rx="27" ry="26.7407"/>
<text text-anchor="middle" x="871.691" y="-748.591" font-family="Times,serif" font-size="14.00">IR1</text>
<text text-anchor="middle" x="871.691" y="-733.591" font-family="Times,serif" font-size="14.00">(4)</text>
</g>
<!-- 1&#45;&gt;4 -->
<g id="edge3" class="edge"><title>1&#45;&gt;4</title>
<path fill="none" stroke="forestgreen" d="M651.006,-979.805C701.585,-926.171 800.258,-821.538 846.563,-772.436"/>
<polygon fill="forestgreen" stroke="forestgreen" points="648.168,-977.713 643.853,-987.389 653.261,-982.515 648.168,-977.713"/>
<polygon fill="forestgreen" stroke="forestgreen" points="849.215,-774.726 853.529,-765.049 844.122,-769.923 849.215,-774.726"/>
</g>
<!-- 5 -->
<g id="node5" class="node"><title>5</title>
<ellipse fill="none" stroke="forestgreen" cx="621.691" cy="-744.791" rx="72.6644" ry="26.7407"/>
<text text-anchor="middle" x="621.691" y="-748.591" font-family="Times,serif" font-size="14.00">IR Living room</text>
<text text-anchor="middle" x="621.691" y="-733.591" font-family="Times,serif" font-size="14.00">(5)</text>
</g>
<!-- 1&#45;&gt;5 -->
<g id="edge4" class="edge"><title>1&#45;&gt;5</title>
<path fill="none" stroke="forestgreen" d="M627.902,-977.192C636.18,-936.132 646.676,-866.866 638.691,-807.661 637.524,-799.012 635.479,-789.863 633.203,-781.329"/>
<polygon fill="forestgreen" stroke="forestgreen" points="624.472,-976.496 625.858,-986.999 631.325,-977.924 624.472,-976.496"/>
<polygon fill="forestgreen" stroke="forestgreen" points="636.557,-780.328 630.464,-771.66 629.823,-782.236 636.557,-780.328"/>
</g>
<!-- 8 -->
<g id="node7" class="node"><title>8</title>
<ellipse fill="none" stroke="black" cx="184.691" cy="-475.571" rx="49.4949" ry="26.7407"/>
<text text-anchor="middle" x="184.691" y="-479.371" font-family="Times,serif" font-size="14.00">raingauge</text>
<text text-anchor="middle" x="184.691" y="-464.371" font-family="Times,serif" font-size="14.00">(8)</text>
</g>
<!-- 1&#45;&gt;8 -->
<g id="edge5" class="edge"><title>1&#45;&gt;8</title>
<path fill="none" stroke="black" stroke-dasharray="1,5" d="M481.795,-1007.76C320.187,-1000.15 70.6128,-983.325 41.6906,-951.141 -77.1515,-818.899 88.9967,-590.978 157.516,-507.97"/>
<polygon fill="black" stroke="black" points="160.305,-510.09 164.022,-500.169 154.929,-505.607 160.305,-510.09"/>
</g>
<!-- 18 -->
<g id="node13" class="node"><title>18</title>
<ellipse fill="none" stroke="forestgreen" cx="862.691" cy="-296.09" rx="27.6545" ry="26.7407"/>
<text text-anchor="middle" x="862.691" y="-299.89" font-family="Times,serif" font-size="14.00">t3</text>
<text text-anchor="middle" x="862.691" y="-284.89" font-family="Times,serif" font-size="14.00">(18)</text>
</g>
<!-- 1&#45;&gt;18 -->
<g id="edge6" class="edge"><title>1&#45;&gt;18</title>
<path fill="none" stroke="forestgreen" d="M716.801,-990.32C835.193,-959.774 1019.69,-901.576 1019.69,-835.531 1019.69,-835.531 1019.69,-835.531 1019.69,-474.571 1019.69,-420.755 1018.36,-400.121 983.691,-358.96 961.722,-332.878 925.99,-316.526 899.038,-307.23"/>
<polygon fill="forestgreen" stroke="forestgreen" points="715.8,-986.964 706.978,-992.831 717.533,-993.746 715.8,-986.964"/>
<polygon fill="forestgreen" stroke="forestgreen" points="899.778,-303.79 889.186,-304.008 897.602,-310.443 899.778,-303.79"/>
</g>
<!-- 23 -->
<g id="node17" class="node"><title>23</title>
<ellipse fill="none" stroke="forestgreen" cx="471.691" cy="-206.35" rx="27.6545" ry="26.7407"/>
<text text-anchor="middle" x="471.691" y="-210.15" font-family="Times,serif" font-size="14.00">t7</text>
<text text-anchor="middle" x="471.691" y="-195.15" font-family="Times,serif" font-size="14.00">(23)</text>
</g>
<!-- 1&#45;&gt;23 -->
<g id="edge7" class="edge"><title>1&#45;&gt;23</title>
<path fill="none" stroke="forestgreen" d="M488.427,-998.739C410.309,-988.318 320.088,-972.315 286.691,-951.141 162.131,-872.172 137.992,-822.274 92.6906,-681.921 71.5529,-616.431 104.619,-482.85 126.691,-448.701 204.567,-328.21 365.819,-250.61 436.828,-220.958"/>
<polygon fill="forestgreen" stroke="forestgreen" points="488.008,-1002.21 498.379,-1000.05 488.919,-995.273 488.008,-1002.21"/>
<polygon fill="forestgreen" stroke="forestgreen" points="438.312,-224.132 446.231,-217.093 435.651,-217.658 438.312,-224.132"/>
</g>
<!-- 2&#45;&gt;3 -->
<g id="edge8" class="edge"><title>2&#45;&gt;3</title>
<path fill="none" stroke="darkturquoise" stroke-dasharray="5,2" d="M443.691,-886.859C443.691,-881.813 443.691,-876.631 443.691,-871.591"/>
<polygon fill="darkturquoise" stroke="darkturquoise" points="440.191,-886.946 443.691,-896.946 447.191,-886.946 440.191,-886.946"/>
<polygon fill="darkturquoise" stroke="darkturquoise" points="447.191,-871.535 443.691,-861.535 440.191,-871.535 447.191,-871.535"/>
</g>
<!-- 2&#45;&gt;4 -->
<g id="edge9" class="edge"><title>2&#45;&gt;4</title>
<path fill="none" stroke="darkturquoise" stroke-dasharray="5,2" d="M530.809,-898.281C564.813,-887.84 603.911,-874.98 638.691,-861.401 726.434,-827.143 748.03,-816.825 830.691,-771.661 833.987,-769.86 837.379,-767.901 840.735,-765.894"/>
<polygon fill="darkturquoise" stroke="darkturquoise" points="529.442,-895.039 520.897,-901.301 531.483,-901.735 529.442,-895.039"/>
<polygon fill="darkturquoise" stroke="darkturquoise" points="842.753,-768.761 849.439,-760.542 839.087,-762.798 842.753,-768.761"/>
</g>
<!-- 14 -->
<g id="node9" class="node"><title>14</title>
<ellipse fill="none" stroke="darkturquoise" cx="443.691" cy="-655.051" rx="53.066" ry="26.7407"/>
<text text-anchor="middle" x="443.691" y="-658.851" font-family="Times,serif" font-size="14.00">infraheater</text>
<text text-anchor="middle" x="443.691" y="-643.851" font-family="Times,serif" font-size="14.00">(14)</text>
</g>
<!-- 2&#45;&gt;14 -->
<g id="edge10" class="edge"><title>2&#45;&gt;14</title>
<path fill="none" stroke="darkturquoise" d="M311.065,-905.844C286.67,-896.49 264.082,-882.432 248.691,-861.401 194.881,-787.875 321.171,-713.187 395.005,-677.551"/>
<polygon fill="darkturquoise" stroke="darkturquoise" points="309.897,-909.143 320.492,-909.203 312.247,-902.55 309.897,-909.143"/>
<polygon fill="darkturquoise" stroke="darkturquoise" points="396.641,-680.649 404.172,-673.197 393.638,-674.326 396.641,-680.649"/>
</g>
<!-- 3&#45;&gt;4 -->
<g id="edge11" class="edge"><title>3&#45;&gt;4</title>
<path fill="none" stroke="darkturquoise" stroke-dasharray="5,2" d="M583.997,-813.901C685.029,-799.289 807.471,-780.42 830.691,-771.661 834.394,-770.264 838.121,-768.507 841.737,-766.57"/>
<polygon fill="darkturquoise" stroke="darkturquoise" points="583.378,-810.454 573.98,-815.346 584.377,-817.382 583.378,-810.454"/>
<polygon fill="darkturquoise" stroke="darkturquoise" points="843.561,-769.558 850.422,-761.484 840.024,-763.517 843.561,-769.558"/>
</g>
<!-- 3&#45;&gt;5 -->
<g id="edge12" class="edge"><title>3&#45;&gt;5</title>
<path fill="none" stroke="darkturquoise" stroke-dasharray="5,2" d="M503.215,-804.19C524.888,-793.507 549.189,-781.528 570.116,-771.213"/>
<polygon fill="darkturquoise" stroke="darkturquoise" points="501.644,-801.062 494.222,-808.623 504.739,-807.341 501.644,-801.062"/>
<polygon fill="darkturquoise" stroke="darkturquoise" points="571.743,-774.314 579.165,-766.753 568.648,-768.035 571.743,-774.314"/>
</g>
<!-- 7 -->
<g id="node6" class="node"><title>7</title>
<ellipse fill="none" stroke="black" cx="351.691" cy="-26.8701" rx="86.9483" ry="26.7407"/>
<text text-anchor="middle" x="351.691" y="-30.6701" font-family="Times,serif" font-size="14.00">Torpargrund sensor</text>
<text text-anchor="middle" x="351.691" y="-15.6701" font-family="Times,serif" font-size="14.00">(7)</text>
</g>
<!-- 3&#45;&gt;7 -->
<g id="edge13" class="edge"><title>3&#45;&gt;7</title>
<path fill="none" stroke="black" stroke-dasharray="1,5" d="M304.892,-816.632C271.731,-807.432 238.279,-793.308 211.691,-771.661 70.3122,-656.559 69.6906,-569.139 69.6906,-386.831 69.6906,-386.831 69.6906,-386.831 69.6906,-205.35 69.6906,-149.715 75.7861,-126.336 117.691,-89.7401 155.729,-56.5209 209.624,-40.8561 256.104,-33.5849"/>
<polygon fill="black" stroke="black" points="256.814,-37.0185 266.207,-32.1163 255.807,-30.0913 256.814,-37.0185"/>
</g>
<!-- 3&#45;&gt;8 -->
<g id="edge14" class="edge"><title>3&#45;&gt;8</title>
<path fill="none" stroke="black" stroke-dasharray="1,5" d="M365.078,-810.072C305.194,-787.638 226.765,-747.362 188.691,-681.921 158.062,-629.277 166.524,-555.466 175.549,-512.169"/>
<polygon fill="black" stroke="black" points="178.974,-512.891 177.71,-502.371 172.138,-511.383 178.974,-512.891"/>
</g>
<!-- 3&#45;&gt;14 -->
<g id="edge15" class="edge"><title>3&#45;&gt;14</title>
<path fill="none" stroke="darkturquoise" d="M443.691,-797.275C443.691,-766.631 443.691,-722.955 443.691,-692.31"/>
<polygon fill="darkturquoise" stroke="darkturquoise" points="440.191,-797.343 443.691,-807.343 447.191,-797.343 440.191,-797.343"/>
<polygon fill="darkturquoise" stroke="darkturquoise" points="447.191,-692.057 443.691,-682.057 440.191,-692.057 447.191,-692.057"/>
</g>
<!-- 3&#45;&gt;18 -->
<g id="edge16" class="edge"><title>3&#45;&gt;18</title>
<path fill="none" stroke="darkturquoise" stroke-dasharray="5,2" d="M566.773,-810.978C610.712,-801.175 660.104,-788.111 703.691,-771.661 783.256,-741.632 810.703,-740.145 872.691,-681.921 916.641,-640.639 943.691,-626.609 943.691,-566.311 943.691,-566.311 943.691,-566.311 943.691,-474.571 943.691,-420.755 931.84,-407.054 907.691,-358.96 901.824,-347.276 893.815,-335.43 886.179,-325.274"/>
<polygon fill="darkturquoise" stroke="darkturquoise" points="565.918,-807.582 556.902,-813.146 567.42,-814.419 565.918,-807.582"/>
<polygon fill="darkturquoise" stroke="darkturquoise" points="888.8,-322.941 879.908,-317.18 883.267,-327.229 888.8,-322.941"/>
</g>
<!-- 4&#45;&gt;14 -->
<g id="edge17" class="edge"><title>4&#45;&gt;14</title>
<path fill="none" stroke="darkturquoise" d="M835.054,-736.281C760.79,-721.056 591.965,-686.447 502.257,-668.057"/>
<polygon fill="darkturquoise" stroke="darkturquoise" points="834.741,-739.789 845.24,-738.369 836.147,-732.932 834.741,-739.789"/>
<polygon fill="darkturquoise" stroke="darkturquoise" points="502.747,-664.585 492.248,-666.005 501.341,-671.442 502.747,-664.585"/>
</g>
<!-- 4&#45;&gt;18 -->
<g id="edge18" class="edge"><title>4&#45;&gt;18</title>
<path fill="none" stroke="darkturquoise" stroke-dasharray="5,2" d="M904.937,-727.744C923.261,-717.211 944.837,-701.716 957.691,-681.921 986.27,-637.908 981.691,-618.789 981.691,-566.311 981.691,-566.311 981.691,-566.311 981.691,-474.571 981.691,-422.093 987.283,-402.299 957.691,-358.96 942.964,-337.394 917.984,-321.563 897.335,-311.316"/>
<polygon fill="darkturquoise" stroke="darkturquoise" points="903.07,-724.776 895.986,-732.654 906.436,-730.913 903.07,-724.776"/>
<polygon fill="darkturquoise" stroke="darkturquoise" points="898.741,-308.109 888.205,-307 895.75,-314.438 898.741,-308.109"/>
</g>
<!-- 5&#45;&gt;14 -->
<g id="edge19" class="edge"><title>5&#45;&gt;14</title>
<path fill="none" stroke="darkturquoise" d="M570.028,-718.326C544.722,-705.852 514.497,-690.953 489.955,-678.856"/>
<polygon fill="darkturquoise" stroke="darkturquoise" points="568.538,-721.493 579.055,-722.775 571.633,-715.214 568.538,-721.493"/>
<polygon fill="darkturquoise" stroke="darkturquoise" points="491.367,-675.65 480.85,-674.368 488.272,-681.928 491.367,-675.65"/>
</g>
<!-- 15 -->
<g id="node10" class="node"><title>15</title>
<ellipse fill="none" stroke="darkturquoise" cx="725.691" cy="-565.311" rx="75.8212" ry="26.7407"/>
<text text-anchor="middle" x="725.691" y="-569.111" font-family="Times,serif" font-size="14.00">hall_multisensor</text>
<text text-anchor="middle" x="725.691" y="-554.111" font-family="Times,serif" font-size="14.00">(15)</text>
</g>
<!-- 5&#45;&gt;15 -->
<g id="edge20" class="edge"><title>5&#45;&gt;15</title>
<path fill="none" stroke="darkturquoise" d="M641.742,-709.573C660.138,-678.179 687.245,-631.919 705.641,-600.526"/>
<polygon fill="darkturquoise" stroke="darkturquoise" points="638.627,-707.965 636.591,-718.362 644.667,-711.504 638.627,-707.965"/>
<polygon fill="darkturquoise" stroke="darkturquoise" points="708.782,-602.09 710.818,-591.692 702.742,-598.55 708.782,-602.09"/>
</g>
<!-- 16 -->
<g id="node11" class="node"><title>16</title>
<ellipse fill="none" stroke="darkturquoise" cx="583.691" cy="-475.571" rx="27.6545" ry="26.7407"/>
<text text-anchor="middle" x="583.691" y="-479.371" font-family="Times,serif" font-size="14.00">t1</text>
<text text-anchor="middle" x="583.691" y="-464.371" font-family="Times,serif" font-size="14.00">(16)</text>
</g>
<!-- 5&#45;&gt;16 -->
<g id="edge21" class="edge"><title>5&#45;&gt;16</title>
<path fill="none" stroke="darkturquoise" d="M616.562,-707.726C609.281,-656.525 596.028,-563.331 588.773,-512.309"/>
<polygon fill="darkturquoise" stroke="darkturquoise" points="613.105,-708.275 617.978,-717.682 620.035,-707.289 613.105,-708.275"/>
<polygon fill="darkturquoise" stroke="darkturquoise" points="592.236,-511.8 587.363,-502.392 585.305,-512.785 592.236,-511.8"/>
</g>
<!-- 17 -->
<g id="node12" class="node"><title>17</title>
<ellipse fill="none" stroke="darkturquoise" cx="697.691" cy="-385.831" rx="27.6545" ry="26.7407"/>
<text text-anchor="middle" x="697.691" y="-389.631" font-family="Times,serif" font-size="14.00">t2</text>
<text text-anchor="middle" x="697.691" y="-374.631" font-family="Times,serif" font-size="14.00">(17)</text>
</g>
<!-- 5&#45;&gt;17 -->
<g id="edge22" class="edge"><title>5&#45;&gt;17</title>
<path fill="none" stroke="darkturquoise" d="M674.669,-718.459C720.168,-693.447 782.713,-650.491 810.691,-592.181 843.254,-524.313 769.753,-447.304 726.47,-409.801"/>
<polygon fill="darkturquoise" stroke="darkturquoise" points="672.962,-715.403 665.812,-723.221 676.277,-721.568 672.962,-715.403"/>
<polygon fill="darkturquoise" stroke="darkturquoise" points="728.661,-407.071 718.772,-403.27 724.132,-412.408 728.661,-407.071"/>
</g>
<!-- 5&#45;&gt;18 -->
<g id="edge23" class="edge"><title>5&#45;&gt;18</title>
<path fill="none" stroke="darkturquoise" stroke-dasharray="5,2" d="M696.638,-730.547C780.78,-710.865 905.691,-665.022 905.691,-566.311 905.691,-566.311 905.691,-566.311 905.691,-474.571 905.691,-422.425 899.278,-409.305 885.691,-358.96 883.169,-349.617 879.808,-339.705 876.436,-330.616"/>
<polygon fill="darkturquoise" stroke="darkturquoise" points="695.827,-727.142 686.846,-732.763 697.372,-733.969 695.827,-727.142"/>
<polygon fill="darkturquoise" stroke="darkturquoise" points="879.654,-329.232 872.811,-321.143 873.116,-331.733 879.654,-329.232"/>
</g>
<!-- 19 -->
<g id="node14" class="node"><title>19</title>
<ellipse fill="none" stroke="darkturquoise" cx="375.691" cy="-565.311" rx="27.6545" ry="26.7407"/>
<text text-anchor="middle" x="375.691" y="-569.111" font-family="Times,serif" font-size="14.00">t4</text>
<text text-anchor="middle" x="375.691" y="-554.111" font-family="Times,serif" font-size="14.00">(19)</text>
</g>
<!-- 5&#45;&gt;19 -->
<g id="edge24" class="edge"><title>5&#45;&gt;19</title>
<path fill="none" stroke="darkturquoise" d="M543.295,-733.679C481.398,-723.941 402.164,-706.972 381.691,-681.921 363.582,-659.763 363.761,-626.49 367.486,-601.32"/>
<polygon fill="darkturquoise" stroke="darkturquoise" points="543.043,-737.181 553.458,-735.238 544.104,-730.262 543.043,-737.181"/>
<polygon fill="darkturquoise" stroke="darkturquoise" points="370.942,-601.877 369.19,-591.429 364.043,-600.69 370.942,-601.877"/>
</g>
<!-- 22 -->
<g id="node16" class="node"><title>22</title>
<ellipse fill="none" stroke="darkturquoise" cx="225.691" cy="-565.311" rx="27.6545" ry="26.7407"/>
<text text-anchor="middle" x="225.691" y="-569.111" font-family="Times,serif" font-size="14.00">t6</text>
<text text-anchor="middle" x="225.691" y="-554.111" font-family="Times,serif" font-size="14.00">(22)</text>
</g>
<!-- 5&#45;&gt;22 -->
<g id="edge25" class="edge"><title>5&#45;&gt;22</title>
<path fill="none" stroke="darkturquoise" d="M542.321,-734.771C489.031,-726.393 418.458,-710.691 361.691,-681.921 317.663,-659.608 275.775,-620.307 250.408,-593.794"/>
<polygon fill="darkturquoise" stroke="darkturquoise" points="541.989,-738.26 552.401,-736.301 543.04,-731.34 541.989,-738.26"/>
<polygon fill="darkturquoise" stroke="darkturquoise" points="252.796,-591.226 243.392,-586.346 247.701,-596.025 252.796,-591.226"/>
</g>
<!-- 5&#45;&gt;23 -->
<g id="edge26" class="edge"><title>5&#45;&gt;23</title>
<path fill="none" stroke="darkturquoise" stroke-dasharray="5,2" d="M609.998,-708.152C594.739,-661.208 567.529,-575.988 546.691,-502.441 535.467,-462.826 533.855,-452.6 523.691,-412.701 508.457,-352.907 490.856,-283.283 480.533,-242.399"/>
<polygon fill="darkturquoise" stroke="darkturquoise" points="606.731,-709.423 613.157,-717.847 613.387,-707.255 606.731,-709.423"/>
<polygon fill="darkturquoise" stroke="darkturquoise" points="483.913,-241.486 478.071,-232.647 477.126,-243.2 483.913,-241.486"/>
</g>
<!-- 24 -->
<g id="node18" class="node"><title>24</title>
<ellipse fill="none" stroke="darkturquoise" cx="565.691" cy="-116.61" rx="27.6545" ry="26.7407"/>
<text text-anchor="middle" x="565.691" y="-120.41" font-family="Times,serif" font-size="14.00">t8</text>
<text text-anchor="middle" x="565.691" y="-105.41" font-family="Times,serif" font-size="14.00">(24)</text>
</g>
<!-- 5&#45;&gt;24 -->
<g id="edge27" class="edge"><title>5&#45;&gt;24</title>
<path fill="none" stroke="darkturquoise" d="M697.798,-731.514C831.771,-707.734 1095.69,-650.238 1095.69,-566.311 1095.69,-566.311 1095.69,-566.311 1095.69,-295.09 1095.69,-191.125 724.352,-136.857 603.327,-121.931"/>
<polygon fill="darkturquoise" stroke="darkturquoise" points="696.843,-728.128 687.598,-733.304 698.053,-735.023 696.843,-728.128"/>
<polygon fill="darkturquoise" stroke="darkturquoise" points="603.418,-118.416 593.07,-120.687 602.575,-125.365 603.418,-118.416"/>
</g>
<!-- 9 -->
<g id="node8" class="node"><title>9</title>
<ellipse fill="none" stroke="black" cx="916.691" cy="-1014.01" rx="137.358" ry="26.7407"/>
<text text-anchor="middle" x="916.691" y="-1017.81" font-family="Times,serif" font-size="14.00">Aeotec ZW130 WallMote Quad</text>
<text text-anchor="middle" x="916.691" y="-1002.81" font-family="Times,serif" font-size="14.00">(9)</text>
</g>
<!-- 14&#45;&gt;7 -->
<g id="edge28" class="edge"><title>14&#45;&gt;7</title>
<path fill="none" stroke="black" stroke-dasharray="1,5" d="M403.889,-637.238C382.543,-626.704 356.952,-611.459 338.691,-592.181 313.292,-565.368 185.691,-334.023 185.691,-297.09 185.691,-297.09 185.691,-297.09 185.691,-205.35 185.691,-137.83 250.566,-85.3688 299.203,-55.526"/>
<polygon fill="black" stroke="black" points="301.291,-58.3554 308.076,-50.2184 297.697,-52.3481 301.291,-58.3554"/>
</g>
<!-- 14&#45;&gt;8 -->
<g id="edge29" class="edge"><title>14&#45;&gt;8</title>
<path fill="none" stroke="black" stroke-dasharray="1,5" d="M399.131,-640.192C370.564,-629.896 333.72,-613.877 305.691,-592.181 281.501,-573.457 284.366,-560.025 262.691,-538.441 250.316,-526.119 235.561,-513.886 222.23,-503.592"/>
<polygon fill="black" stroke="black" points="224.228,-500.714 214.149,-497.449 219.992,-506.287 224.228,-500.714"/>
</g>
<!-- 14&#45;&gt;15 -->
<g id="edge30" class="edge"><title>14&#45;&gt;15</title>
<path fill="none" stroke="#eec900" stroke-dasharray="5,2" d="M497.638,-637.266C544.057,-622.824 611.153,-601.947 660.555,-586.577"/>
<polygon fill="#eec900" stroke="#eec900" points="496.572,-633.932 488.063,-640.245 498.652,-640.616 496.572,-633.932"/>
<polygon fill="#eec900" stroke="#eec900" points="661.68,-589.892 670.188,-583.579 659.6,-583.208 661.68,-589.892"/>
</g>
<!-- 14&#45;&gt;16 -->
<g id="edge31" class="edge"><title>14&#45;&gt;16</title>
<path fill="none" stroke="#eec900" stroke-dasharray="5,2" d="M483.517,-627.459C496.695,-617.425 510.767,-605.25 521.691,-592.181 542.451,-567.344 559.271,-534.449 570.126,-510.099"/>
<polygon fill="#eec900" stroke="#eec900" points="481.42,-624.656 475.464,-633.418 485.584,-630.283 481.42,-624.656"/>
<polygon fill="#eec900" stroke="#eec900" points="573.351,-511.46 574.129,-500.894 566.931,-508.669 573.351,-511.46"/>
</g>
<!-- 14&#45;&gt;17 -->
<g id="edge32" class="edge"><title>14&#45;&gt;17</title>
<path fill="none" stroke="#eec900" stroke-dasharray="5,2" d="M492.238,-632.317C512.494,-621.891 535.492,-608.172 553.691,-592.181 611.286,-541.573 657.776,-463.434 681.19,-419.578"/>
<polygon fill="#eec900" stroke="#eec900" points="490.522,-629.262 483.15,-636.873 493.659,-635.52 490.522,-629.262"/>
<polygon fill="#eec900" stroke="#eec900" points="684.406,-420.982 685.967,-410.503 678.212,-417.722 684.406,-420.982"/>
</g>
<!-- 14&#45;&gt;18 -->
<g id="edge33" class="edge"><title>14&#45;&gt;18</title>
<path fill="none" stroke="darkturquoise" d="M506.864,-651.945C600.311,-647.462 768.865,-633.697 810.691,-592.181 880.493,-522.894 875.555,-394.999 868.201,-332.854"/>
<polygon fill="darkturquoise" stroke="darkturquoise" points="506.511,-648.457 496.682,-652.411 506.831,-655.45 506.511,-648.457"/>
<polygon fill="darkturquoise" stroke="darkturquoise" points="871.65,-332.23 866.914,-322.752 864.706,-333.115 871.65,-332.23"/>
</g>
<!-- 14&#45;&gt;19 -->
<g id="edge34" class="edge"><title>14&#45;&gt;19</title>
<path fill="none" stroke="#eec900" stroke-dasharray="5,2" d="M418.489,-621.534C411.848,-612.964 404.725,-603.774 398.233,-595.398"/>
<polygon fill="#eec900" stroke="#eec900" points="415.857,-623.85 424.749,-629.61 421.389,-619.562 415.857,-623.85"/>
<polygon fill="#eec900" stroke="#eec900" points="400.885,-593.106 391.993,-587.346 395.353,-597.394 400.885,-593.106"/>
</g>
<!-- 14&#45;&gt;22 -->
<g id="edge35" class="edge"><title>14&#45;&gt;22</title>
<path fill="none" stroke="#eec900" stroke-dasharray="5,2" d="M388.492,-637.997C353.187,-626.919 306.837,-610.853 267.691,-592.181 264.14,-590.487 260.511,-588.568 256.946,-586.56"/>
<polygon fill="#eec900" stroke="#eec900" points="387.554,-641.371 398.142,-640.988 389.626,-634.684 387.554,-641.371"/>
<polygon fill="#eec900" stroke="#eec900" points="258.691,-583.525 248.299,-581.459 255.134,-589.554 258.691,-583.525"/>
</g>
<!-- 14&#45;&gt;23 -->
<g id="edge36" class="edge"><title>14&#45;&gt;23</title>
<path fill="none" stroke="darkturquoise" d="M445.958,-617.882C451.213,-534.034 464.18,-327.171 469.43,-243.42"/>
<polygon fill="darkturquoise" stroke="darkturquoise" points="442.45,-617.904 445.317,-628.104 449.436,-618.342 442.45,-617.904"/>
<polygon fill="darkturquoise" stroke="darkturquoise" points="472.927,-243.569 470.06,-233.369 465.941,-243.131 472.927,-243.569"/>
</g>
<!-- 14&#45;&gt;24 -->
<g id="edge37" class="edge"><title>14&#45;&gt;24</title>
<path fill="none" stroke="#eec900" stroke-dasharray="5,2" d="M461.932,-619.665C486.638,-569.805 527.691,-473.863 527.691,-386.831 527.691,-386.831 527.691,-386.831 527.691,-295.09 527.691,-244.471 542.654,-187.493 553.801,-152.07"/>
<polygon fill="#eec900" stroke="#eec900" points="458.745,-618.211 457.374,-628.717 464.997,-621.359 458.745,-618.211"/>
<polygon fill="#eec900" stroke="#eec900" points="557.234,-152.828 556.973,-142.237 550.572,-150.68 557.234,-152.828"/>
</g>
<!-- 15&#45;&gt;7 -->
<g id="edge38" class="edge"><title>15&#45;&gt;7</title>
<path fill="none" stroke="black" stroke-dasharray="1,5" d="M782.763,-547.463C877.687,-515.521 1057.69,-436.561 1057.69,-297.09 1057.69,-297.09 1057.69,-297.09 1057.69,-205.35 1057.69,-81.0336 640.758,-42.9738 447.699,-32.0141"/>
<polygon fill="black" stroke="black" points="447.733,-28.5107 437.554,-31.4515 447.345,-35.4999 447.733,-28.5107"/>
</g>
<!-- 15&#45;&gt;16 -->
<g id="edge39" class="edge"><title>15&#45;&gt;16</title>
<path fill="none" stroke="#eec900" stroke-dasharray="5,2" d="M680.337,-536.287C659.191,-523.221 634.539,-507.989 615.425,-496.179"/>
<polygon fill="#eec900" stroke="#eec900" points="678.775,-539.437 689.122,-541.715 682.455,-533.482 678.775,-539.437"/>
<polygon fill="#eec900" stroke="#eec900" points="617.143,-493.127 606.797,-490.848 613.464,-499.082 617.143,-493.127"/>
</g>
<!-- 15&#45;&gt;17 -->
<g id="edge40" class="edge"><title>15&#45;&gt;17</title>
<path fill="none" stroke="#eec900" stroke-dasharray="5,2" d="M719.966,-528.024C715.116,-497.284 708.2,-453.445 703.365,-422.796"/>
<polygon fill="#eec900" stroke="#eec900" points="716.543,-528.791 721.559,-538.123 723.458,-527.7 716.543,-528.791"/>
<polygon fill="#eec900" stroke="#eec900" points="706.764,-421.881 701.748,-412.549 699.849,-422.972 706.764,-421.881"/>
</g>
<!-- 15&#45;&gt;18 -->
<g id="edge41" class="edge"><title>15&#45;&gt;18</title>
<path fill="none" stroke="darkturquoise" d="M740.654,-528.896C750.64,-505.818 764.344,-475.183 777.691,-448.701 799.044,-406.331 826.232,-358.815 844.033,-328.457"/>
<polygon fill="darkturquoise" stroke="darkturquoise" points="737.349,-527.721 736.613,-538.29 743.78,-530.487 737.349,-527.721"/>
<polygon fill="darkturquoise" stroke="darkturquoise" points="847.183,-330.005 849.239,-319.612 841.15,-326.455 847.183,-330.005"/>
</g>
<!-- 15&#45;&gt;24 -->
<g id="edge42" class="edge"><title>15&#45;&gt;24</title>
<path fill="none" stroke="#eec900" stroke-dasharray="5,2" d="M709.547,-529.243C695.781,-498.755 675.867,-453.237 660.691,-412.701 642.382,-363.799 597.249,-219.496 576.475,-152.508"/>
<polygon fill="#eec900" stroke="#eec900" points="706.468,-530.927 713.787,-538.588 712.843,-528.035 706.468,-530.927"/>
<polygon fill="#eec900" stroke="#eec900" points="579.778,-151.342 573.475,-142.826 573.091,-153.414 579.778,-151.342"/>
</g>
<!-- 16&#45;&gt;7 -->
<g id="edge43" class="edge"><title>16&#45;&gt;7</title>
<path fill="none" stroke="black" stroke-dasharray="1,5" d="M563.244,-456.997C521.888,-420.164 428.524,-330.219 384.691,-233.22 359.605,-177.709 353.251,-106.182 351.835,-63.8559"/>
<polygon fill="black" stroke="black" points="355.331,-63.6573 351.572,-53.7515 348.333,-63.839 355.331,-63.6573"/>
</g>
<!-- 16&#45;&gt;17 -->
<g id="edge44" class="edge"><title>16&#45;&gt;17</title>
<path fill="none" stroke="#eec900" stroke-dasharray="5,2" d="M612.937,-452.062C629.923,-438.988 651.259,-422.567 668.274,-409.471"/>
<polygon fill="#eec900" stroke="#eec900" points="610.656,-449.4 604.866,-458.273 614.925,-454.947 610.656,-449.4"/>
<polygon fill="#eec900" stroke="#eec900" points="670.452,-412.211 676.242,-403.339 666.182,-406.664 670.452,-412.211"/>
</g>
<!-- 16&#45;&gt;23 -->
<g id="edge45" class="edge"><title>16&#45;&gt;23</title>
<path fill="none" stroke="darkturquoise" d="M571.615,-440.338C556.815,-399.2 530.399,-328.327 503.691,-269.22 499.246,-259.385 494.011,-248.887 489.077,-239.385"/>
<polygon fill="darkturquoise" stroke="darkturquoise" points="568.366,-441.649 575.032,-449.884 574.957,-439.289 568.366,-441.649"/>
<polygon fill="darkturquoise" stroke="darkturquoise" points="492.038,-237.495 484.284,-230.275 485.843,-240.755 492.038,-237.495"/>
</g>
<!-- 16&#45;&gt;24 -->
<g id="edge46" class="edge"><title>16&#45;&gt;24</title>
<path fill="none" stroke="#eec900" stroke-dasharray="5,2" d="M581.857,-438.209C578.401,-369.665 570.96,-222.105 567.512,-153.74"/>
<polygon fill="#eec900" stroke="#eec900" points="578.382,-438.8 582.382,-448.611 585.373,-438.448 578.382,-438.8"/>
<polygon fill="#eec900" stroke="#eec900" points="570.994,-153.283 566.995,-143.472 564.003,-153.636 570.994,-153.283"/>
</g>
<!-- 17&#45;&gt;7 -->
<g id="edge47" class="edge"><title>17&#45;&gt;7</title>
<path fill="none" stroke="black" stroke-dasharray="1,5" d="M703.189,-359.035C707.42,-335.552 711.892,-299.96 707.691,-269.22 695.175,-177.655 681.853,-137.429 602.691,-89.7401 554.766,-60.8693 493.997,-45.4451 444.256,-37.2178"/>
<polygon fill="black" stroke="black" points="444.565,-33.7231 434.141,-35.6178 443.471,-40.6372 444.565,-33.7231"/>
</g>
<!-- 17&#45;&gt;18 -->
<g id="edge48" class="edge"><title>17&#45;&gt;18</title>
<path fill="none" stroke="darkturquoise" d="M729.18,-365.033C732.701,-362.94 736.255,-360.878 739.691,-358.96 769.304,-342.433 803.871,-325.222 828.807,-313.161"/>
<polygon fill="darkturquoise" stroke="darkturquoise" points="727.327,-362.063 720.585,-370.236 730.953,-368.052 727.327,-362.063"/>
<polygon fill="darkturquoise" stroke="darkturquoise" points="830.369,-316.294 837.862,-308.803 827.333,-309.986 830.369,-316.294"/>
</g>
<!-- 17&#45;&gt;23 -->
<g id="edge49" class="edge"><title>17&#45;&gt;23</title>
<path fill="none" stroke="darkturquoise" d="M673.328,-357.232C650.599,-332.435 614.981,-295.921 579.691,-269.22 556.319,-251.538 527.399,-235.226 505.369,-223.796"/>
<polygon fill="darkturquoise" stroke="darkturquoise" points="670.925,-359.793 680.238,-364.844 676.108,-355.088 670.925,-359.793"/>
<polygon fill="darkturquoise" stroke="darkturquoise" points="506.883,-220.639 496.385,-219.206 503.698,-226.872 506.883,-220.639"/>
</g>
<!-- 17&#45;&gt;24 -->
<g id="edge50" class="edge"><title>17&#45;&gt;24</title>
<path fill="none" stroke="#eec900" stroke-dasharray="5,2" d="M698.232,-348.68C697.206,-305.071 689.948,-231.185 655.691,-179.48 642.101,-158.969 619.163,-143.355 599.847,-132.943"/>
<polygon fill="#eec900" stroke="#eec900" points="694.734,-348.869 698.37,-358.82 701.733,-348.773 694.734,-348.869"/>
<polygon fill="#eec900" stroke="#eec900" points="601.206,-129.707 590.711,-128.251 598.008,-135.933 601.206,-129.707"/>
</g>
<!-- 18&#45;&gt;7 -->
<g id="edge51" class="edge"><title>18&#45;&gt;7</title>
<path fill="none" stroke="black" stroke-dasharray="1,5" d="M859.049,-269.409C851.292,-224.984 828.743,-134.284 769.691,-89.7401 720.401,-52.5607 555.222,-37.5254 447.858,-31.5876"/>
<polygon fill="black" stroke="black" points="447.827,-28.081 437.654,-31.0409 447.452,-35.071 447.827,-28.081"/>
</g>
<!-- 18&#45;&gt;23 -->
<g id="edge52" class="edge"><title>18&#45;&gt;23</title>
<path fill="none" stroke="darkturquoise" stroke-dasharray="5,2" d="M825.936,-286.843C751.332,-270.102 582.911,-232.308 508.37,-215.581"/>
<polygon fill="darkturquoise" stroke="darkturquoise" points="825.292,-290.285 835.816,-289.06 826.825,-283.455 825.292,-290.285"/>
<polygon fill="darkturquoise" stroke="darkturquoise" points="509.018,-212.14 498.495,-213.365 507.486,-218.97 509.018,-212.14"/>
</g>
<!-- 18&#45;&gt;24 -->
<g id="edge53" class="edge"><title>18&#45;&gt;24</title>
<path fill="none" stroke="darkturquoise" d="M837.722,-267.914C812.906,-242.23 772.718,-204.069 731.691,-179.48 690.152,-154.585 636.912,-136.909 602.08,-126.989"/>
<polygon fill="darkturquoise" stroke="darkturquoise" points="835.48,-270.634 844.914,-275.456 840.545,-265.803 835.48,-270.634"/>
<polygon fill="darkturquoise" stroke="darkturquoise" points="602.904,-123.585 592.332,-124.278 601.029,-130.329 602.904,-123.585"/>
</g>
<!-- 19&#45;&gt;7 -->
<g id="edge54" class="edge"><title>19&#45;&gt;7</title>
<path fill="none" stroke="black" stroke-dasharray="1,5" d="M359.599,-543.113C328.175,-499.539 261.691,-395.696 261.691,-297.09 261.691,-297.09 261.691,-297.09 261.691,-205.35 261.691,-150.252 296.621,-94.9224 322.959,-61.0341"/>
<polygon fill="black" stroke="black" points="325.95,-62.8961 329.443,-52.8936 320.475,-58.5346 325.95,-62.8961"/>
</g>
<!-- 19&#45;&gt;8 -->
<g id="edge55" class="edge"><title>19&#45;&gt;8</title>
<path fill="none" stroke="black" stroke-dasharray="1,5" d="M351.112,-553.02C320.832,-539.11 268.76,-515.19 230.912,-497.804"/>
<polygon fill="black" stroke="black" points="232.166,-494.528 221.618,-493.534 229.244,-500.889 232.166,-494.528"/>
</g>
<!-- 19&#45;&gt;23 -->
<g id="edge56" class="edge"><title>19&#45;&gt;23</title>
<path fill="none" stroke="darkturquoise" d="M383.822,-528.93C385.777,-520.273 387.835,-511.029 389.691,-502.441 412.036,-399.001 401.131,-368.531 437.691,-269.22 441.541,-258.761 446.946,-247.925 452.316,-238.301"/>
<polygon fill="darkturquoise" stroke="darkturquoise" points="380.393,-528.222 381.593,-538.749 387.22,-529.772 380.393,-528.222"/>
<polygon fill="darkturquoise" stroke="darkturquoise" points="455.43,-239.906 457.401,-229.496 449.369,-236.405 455.43,-239.906"/>
</g>
<!-- 19&#45;&gt;24 -->
<g id="edge57" class="edge"><title>19&#45;&gt;24</title>
<path fill="none" stroke="#eec900" stroke-dasharray="5,2" d="M375.691,-527.696C375.691,-491.81 375.691,-435.558 375.691,-386.831 375.691,-386.831 375.691,-386.831 375.691,-295.09 375.691,-237.404 393.28,-219.641 434.691,-179.48 461.34,-153.635 500.806,-137.026 529.451,-127.594"/>
<polygon fill="#eec900" stroke="#eec900" points="372.191,-528.148 375.691,-538.148 379.191,-528.148 372.191,-528.148"/>
<polygon fill="#eec900" stroke="#eec900" points="530.609,-130.898 539.093,-124.553 528.504,-124.223 530.609,-130.898"/>
</g>
<!-- 21 -->
<g id="node15" class="node"><title>21</title>
<ellipse fill="none" stroke="#eec900" cx="225.691" cy="-655.051" rx="27.6545" ry="26.7407"/>
<text text-anchor="middle" x="225.691" y="-658.851" font-family="Times,serif" font-size="14.00">t5</text>
<text text-anchor="middle" x="225.691" y="-643.851" font-family="Times,serif" font-size="14.00">(21)</text>
</g>
<!-- 21&#45;&gt;22 -->
<g id="edge58" class="edge"><title>21&#45;&gt;22</title>
<path fill="none" stroke="#eec900" d="M225.691,-617.639C225.691,-612.593 225.691,-607.411 225.691,-602.371"/>
<polygon fill="#eec900" stroke="#eec900" points="222.191,-617.726 225.691,-627.726 229.191,-617.726 222.191,-617.726"/>
<polygon fill="#eec900" stroke="#eec900" points="229.191,-602.315 225.691,-592.315 222.191,-602.315 229.191,-602.315"/>
</g>
<!-- 22&#45;&gt;7 -->
<g id="edge59" class="edge"><title>22&#45;&gt;7</title>
<path fill="none" stroke="black" stroke-dasharray="1,5" d="M199.752,-555.228C176.724,-545.753 144.105,-528.587 126.691,-502.441 97.8256,-459.102 107.691,-438.902 107.691,-386.831 107.691,-386.831 107.691,-386.831 107.691,-205.35 107.691,-146.62 126.701,-127.491 171.691,-89.7401 198.645,-67.122 234.32,-52.6155 266.796,-43.3858"/>
<polygon fill="black" stroke="black" points="268.021,-46.68 276.759,-40.6876 266.191,-39.9234 268.021,-46.68"/>
</g>
<!-- 22&#45;&gt;24 -->
<g id="edge60" class="edge"><title>22&#45;&gt;24</title>
<path fill="none" stroke="#eec900" stroke-dasharray="5,2" d="M235.979,-529.625C261.757,-444.78 330.898,-230.015 384.691,-179.48 424.546,-142.039 488.016,-127.166 528.232,-121.319"/>
<polygon fill="#eec900" stroke="#eec900" points="232.595,-528.723 233.054,-539.308 239.296,-530.747 232.595,-528.723"/>
<polygon fill="#eec900" stroke="#eec900" points="528.728,-124.784 538.175,-119.989 527.799,-117.846 528.728,-124.784"/>
</g>
<!-- 23&#45;&gt;7 -->
<g id="edge61" class="edge"><title>23&#45;&gt;7</title>
<path fill="none" stroke="black" stroke-dasharray="1,5" d="M456.976,-183.588C436.437,-153.21 398.97,-97.7961 374.715,-61.9235"/>
<polygon fill="black" stroke="black" points="377.352,-59.5752 368.852,-53.2515 371.554,-63.4961 377.352,-59.5752"/>
</g>
<!-- 23&#45;&gt;24 -->
<g id="edge62" class="edge"><title>23&#45;&gt;24</title>
<path fill="none" stroke="darkturquoise" d="M498.749,-180.093C511.317,-168.363 526.22,-154.452 538.77,-142.738"/>
<polygon fill="darkturquoise" stroke="darkturquoise" points="496.09,-177.788 491.167,-187.17 500.866,-182.906 496.09,-177.788"/>
<polygon fill="darkturquoise" stroke="darkturquoise" points="541.317,-145.149 546.239,-135.767 536.54,-140.032 541.317,-145.149"/>
</g>
<!-- 24&#45;&gt;7 -->
<g id="edge63" class="edge"><title>24&#45;&gt;7</title>
<path fill="none" stroke="black" stroke-dasharray="1,5" d="M540.302,-105.201C508.908,-92.3292 454.437,-69.9962 412.079,-52.6295"/>
<polygon fill="black" stroke="black" points="413.272,-49.3358 402.692,-48.7806 410.617,-55.8126 413.272,-49.3358"/>
</g>
</g>
</svg>
